<svg xmlns="http://www.w3.org/2000/svg" viewBox="0 0 700 175"><path fill="none" d="M0 0h700v175H0z"/><path d="M328.858 83.422h32.336c15.631 0 24.177-8.439 24.177-18.903 0-7.472-4.878-13.986-12.429-17.072-.769-.314-.908-1.349-.237-1.838 4.229-3.086 7.043-7.645 7.043-12.819 0-9.339-7.422-16.877-21.703-16.877h-29.187c-.587 0-1.062.476-1.062 1.063v.246c0 .58.466 1.053 1.045 1.063 8.39.145 9.638 2.226 9.638 13.043v36.568c0 10.818-1.247 13.003-9.639 13.155a1.064 1.064 0 00-1.044 1.063v.246a1.061 1.061 0 001.062 1.062zm19.066-62.283c0-.587.476-1.063 1.062-1.063h8.496c8.434 0 12.37 5.738 12.37 12.714s-3.936 12.602-12.37 12.602h-8.496a1.062 1.062 0 01-1.062-1.063v-23.19zm0 29.479c0-.587.476-1.063 1.062-1.063h12.094c9.783 0 14.394 6.751 14.394 14.965 0 8.101-4.611 14.739-14.394 14.739h-2.474c-9.333 0-10.683-1.8-10.683-13.052V50.618zM430.462 14c-21.815 0-37.559 16.09-37.559 35.667 0 19.578 15.743 35.667 37.559 35.667 21.703 0 37.446-16.09 37.446-35.667S452.165 14 430.462 14zm0 66.722c-19.454 0-26.763-17.102-26.763-31.054 0-13.952 7.31-31.054 26.763-31.054 19.342 0 26.651 17.102 26.651 31.054 0 13.951-7.309 31.054-26.651 31.054zm31.71 1.392v.245c0 .587.476 1.063 1.063 1.063h24.526c.587 0 1.062-.476 1.062-1.063v-.248c0-.577-.46-1.05-1.036-1.062-8.445-.183-10.223-2.696-7.735-8.54l5.01-11.731c.167-.391.552-.645.977-.645h25.029c.422 0 .805.25.974.638l5.119 11.739c2.596 5.952.718 8.365-7.734 8.541a1.062 1.062 0 00-1.037 1.063v.248c0 .587.476 1.063 1.063 1.063h57.248c.587 0 1.062-.476 1.062-1.063v-.246c0-.58-.465-1.052-1.044-1.063-8.391-.152-9.639-2.337-9.639-13.155V54.894c0-.587.476-1.063 1.063-1.063h3.693c.334 0 .648.157.849.424l21.628 28.744c.201.267.515.424.849.424h16.962c.587 0 1.062-.476 1.062-1.063v-.382c0-.511-.362-.956-.866-1.045-6.512-1.144-13.591-6.622-20.05-14.163l-9.758-11.457a1.062 1.062 0 01.633-1.737c11.536-1.89 18.121-9.356 18.121-18.648 0-10.464-8.546-19.015-24.177-19.015h-29.075c-.587 0-1.063.476-1.063 1.063v.246c0 .58.466 1.053 1.045 1.063 8.39.145 9.638 2.226 9.638 13.043v36.568c0 10.592-1.214 12.902-9.142 13.137-7.771-.224-8.389-2.266-11.66-9.762l-24.124-55.618a1.063 1.063 0 00-.975-.64h-1.191c-.424 0-.807.252-.975.642L475.553 71.27c-3.353 7.683-3.897 9.642-12.335 9.781-.58.01-1.046.482-1.046 1.063zm94.907-60.862c0-.587.476-1.063 1.063-1.063h8.833c9.783 0 14.281 6.638 14.281 14.74 0 8.214-4.498 14.739-14.281 14.739h-8.833a1.063 1.063 0 01-1.063-1.063V21.252zm-69.204 33.125l9.748-22.983c.367-.865 1.594-.863 1.958.004l9.651 22.983a1.063 1.063 0 01-.98 1.475h-19.399a1.064 1.064 0 01-.978-1.479zm-93.992 108.452c-8.327-.141-8.872-2.101-12.223-9.78L357.535 97.43a1.063 1.063 0 00-.975-.64h-1.191c-.424 0-.807.252-.975.642l-24.013 55.616c-3.42 7.837-3.918 9.718-12.854 9.787a.532.532 0 00-.527.531v1.302c0 .294.238.532.531.532h25.057c.587 0 1.062-.476 1.062-1.063v-.248c0-.576-.46-1.05-1.036-1.062-8.445-.183-10.223-2.696-7.735-8.54l5.01-11.731c.167-.391.552-.645.977-.645h25.029c.422 0 .805.25.974.638l5.119 11.739c2.596 5.952.718 8.365-7.734 8.541a1.062 1.062 0 00-1.037 1.063v.248c0 .587.476 1.063 1.063 1.063h29.586c.587 0 1.063-.476 1.063-1.063v-.246c0-.583-.467-1.056-1.046-1.065zm-30.803-25.196h-19.399a1.063 1.063 0 01-.978-1.478l9.748-22.983c.367-.865 1.594-.863 1.958.003l9.651 22.983a1.063 1.063 0 01-.98 1.475zm88.273 23.728c-6.834-.184-7.959-2.421-7.959-13.151v-30.554c0-.587-.476-1.063-1.063-1.063h-15.642c-.587 0-1.062.476-1.062 1.063v.139c0 .576.46 1.045 1.035 1.062 6.535.192 7.961 2.442 7.961 13.15v13.727c0 8.776-8.434 15.302-15.406 15.302-7.085 0-11.695-4.275-11.695-13.952v-29.429c0-.587-.476-1.063-1.062-1.063h-15.642c-.587 0-1.063.476-1.063 1.063v.139c0 .576.46 1.045 1.035 1.062 6.535.192 7.961 2.442 7.961 13.15v15.19c0 11.927 6.072 19.353 17.43 19.353 6.687 0 13.04-3.928 16.899-8.327.6-.684 1.728-.348 1.849.554.351 2.61 1.11 5.156 1.708 6.65.185.463.669.731 1.161.648l13.705-2.302c.512-.086.887-.529.887-1.048v-.302a1.065 1.065 0 00-1.037-1.061zm48.754-5.516a1.07 1.07 0 00-1.53-.144c-4.154 3.61-9.346 5.785-13.352 5.785-11.92 0-16.755-8.439-16.755-19.578 0-12.939 5.848-22.841 14.169-22.841 3.261 0 6.859 2.025 6.859 6.188 0 2.7 2.137 4.838 4.611 4.838 4.161 0 5.398-3.375 5.398-5.176 0-4.613-5.847-9.676-16.868-9.676-11.695 0-23.952 10.464-23.952 26.666 0 13.727 7.534 24.641 23.165 24.641 7.21 0 14.316-2.988 19.251-7.977.379-.383.405-.993.067-1.413l-1.063-1.313zm38.884 1.87a1.059 1.059 0 00-1.445-.082c-2.75 2.269-5.327 3.404-7.904 3.404-4.161 0-6.185-3.263-6.185-9.339v-29.991c0-.587.476-1.063 1.062-1.063h10.47c.587 0 1.063-.476 1.063-1.063v-1.924c0-.587-.476-1.063-1.063-1.063h-10.47a1.062 1.062 0 01-1.062-1.063v-12.276c0-.587-.476-1.063-1.063-1.063h-2.715c-.536 0-.987.401-1.053.933-.949 7.604-3.38 12.391-10.439 14.181-.475.12-.811.543-.811 1.033v1.243c0 .587.476 1.063 1.063 1.063h5.184c.587 0 1.063.476 1.063 1.063v29.991c0 10.014 4.386 14.627 11.695 14.627 4.559 0 9.617-2.4 13.29-6.446a1.068 1.068 0 00-.008-1.454l-.672-.711zm31.895 5.221c-6.645-.189-8.073-2.434-8.073-13.151v-33.427c0-.648-.574-1.145-1.215-1.052l-15.755 2.28c-.523.076-.91.524-.91 1.052v.281c0 .576.46 1.047 1.037 1.062 6.845.184 8.072 2.42 8.072 13.151v16.652c0 10.716-1.428 12.961-8.073 13.151a1.064 1.064 0 00-1.036 1.062v.139c0 .587.476 1.063 1.062 1.063h24.863c.587 0 1.063-.476 1.063-1.063v-.139c0-.575-.46-1.045-1.035-1.061zm-17-57.112c.065.09.145.171.235.236 5.602 4.056 11.777-2.121 7.723-7.727a1.057 1.057 0 00-.236-.236c-5.602-4.056-11.776 2.122-7.722 7.727zm49.97 8.969c-14.956 0-26.539 11.927-26.539 26.104s11.583 26.104 26.539 26.104c14.843 0 26.539-11.927 26.539-26.104 0-14.178-11.695-26.104-26.539-26.104zm0 48.044c-11.245 0-16.755-9.789-16.755-21.94 0-12.039 5.51-21.941 16.755-21.941s16.755 9.901 16.755 21.941c0 12.151-5.51 21.94-16.755 21.94zm95.108.099c-6.645-.189-8.073-2.434-8.073-13.151v-15.189c0-11.927-5.96-19.353-17.317-19.353-6.691 0-13.047 3.932-16.906 8.262-.603.677-1.724.337-1.844-.562-.352-2.647-1.111-5.431-1.709-7.003a1.063 1.063 0 00-1.169-.672l-13.807 2.303a1.063 1.063 0 00-.888 1.049v.3c0 .576.461 1.047 1.037 1.062 6.835.184 7.96 2.421 7.96 13.151v16.652c0 10.716-1.428 12.961-8.073 13.151a1.064 1.064 0 00-1.036 1.062v.139c0 .587.476 1.063 1.062 1.063h24.751c.587 0 1.063-.476 1.063-1.063v-.139c0-.576-.46-1.045-1.035-1.062-6.535-.192-7.961-2.442-7.961-13.15v-13.727c0-8.776 8.546-15.302 15.406-15.302 7.197 0 11.695 4.276 11.695 13.952v15.077c0 10.708-1.426 12.958-7.961 13.15a1.064 1.064 0 00-1.035 1.062v.139c0 .587.476 1.063 1.063 1.063h24.751c.587 0 1.063-.476 1.063-1.063v-.139a1.065 1.065 0 00-1.037-1.062zm-438.216-37.069l-.013.007.008.013.005-.02zm-48.397-97.058l5.004.179c.661.024.914-.849.343-1.18l-12.754-7.403a.635.635 0 00-.914.321c-1.606 4.24-8.749 26.54 18.733 26.479.705-.002.883-.976.224-1.226-11.195-4.247-11.432-14.024-11.293-16.574a.633.633 0 01.657-.596z"/><path d="M299.641 96.505c-45.056-21.909-58.452-71.703-66.648-80.451-6.474-6.91-14.585-10.121-17.767-11.181a.633.633 0 00-.789.838c.309.764.651 1.794.782 2.856.065.527-.515.891-.967.611-5.985-3.708-12.446-5.712-15.388-6.5-.561-.15-1.014.467-.699.954a30.173 30.173 0 011.712 2.983c.264.536-.294 1.105-.838.854-4.823-2.225-12.352-4.513-15.541-5.442a.634.634 0 00-.741.901c.356.692.772 1.612 1.099 2.657.158.506-.34.967-.838.779-5.904-2.232-12.042-2.609-14.879-2.652a.633.633 0 00-.466 1.075c.633.647 1.413 1.55 2.031 2.598a.632.632 0 01-.497.945c-27.344 2.424-52.701 13.603-77.544 26.236C46.37 57.597 24.901 72.923 24.901 72.923c7.247 2.838 10.058 14.625 8.652 30.147-1.469 16.223-12.313 27.193-13.946 28.76a.628.628 0 00-.193.479c.101 2.505.659 21.026-4.117 36.364a594.017 594.017 0 00-14.76 2.068c-.775.119-.685 1.259.1 1.259h292.69c.786 0 .874-1.141.097-1.259-11.091-1.685-33.75-4.721-65.451-6.966.301-1.764.71-4.666 1.044-8.864.54-6.786.172-12.516.085-13.691a.635.635 0 00-.166-.381c-1.257-1.362-10.212-11.186-15.404-20.241a.636.636 0 01.45-.942c20.579-3.433 35.917 15.476 57.685 5.1l-17.581-16.489c-.457-.429-1.196-.009-1.056.601.474 2.067.835 4.996-.632 5.873-2.343 1.4-10.544-.35-24.72-11.437-12.511-9.785-13.463-24.485-13.514-27.803a.633.633 0 00-.713-.617c-3.567.427-19.454 3.605-24.434 26.552-4.405 20.294-17.009 25.04-19.616 25.815a.639.639 0 01-.726-.277c-14.176-23.198-3.221-51.961-.005-59.303.249-.568-.387-1.118-.916-.792-4.744 2.923-17.86 12.709-21.775 33.449a.638.638 0 01-.481.503c-33.292 7.715-43.111-19.671-38.182-38.987.152-.595-.547-1.033-1.022-.642-8.036 6.609-13.535 19.16-16.59 33.046-3.657 16.621-16.319 25.306-35.696 27.338-8.628.905-12.166-.879-11.097-9.653l1.484-12.183c2.311-18.965 15.885-38.708 34.496-50.132 18.763-11.516 33.54-13.336 38.503-13.611.621-.034.824-.842.297-1.171-.88-.549-2.161-1.207-3.88-1.751-.631-.2-.585-1.106.065-1.228 5.641-1.057 13.66-1.033 17.671-.939.668.016.906-.873.318-1.19-1.405-.758-3.35-1.693-5.401-2.326-.615-.19-.581-1.076.047-1.22 5.203-1.196 12.929-1.131 16.805-1.005.658.022.912-.845.345-1.178-.998-.586-2.236-1.26-3.424-1.765-.569-.242-.489-1.071.115-1.2 4.202-.902 11.064-.869 14.152-.799.588.013.879-.709.442-1.102-.588-.528-1.365-1.149-2.243-1.655-.507-.293-.397-1.05.176-1.172 5.717-1.217 24.406-4.439 51.883-1.673 17.937 1.806 25.286 4.347 30.119 16.951 3.167 8.261 2.374 21.68 2.197 24.121a.63.63 0 00.308.587c22.915 13.555 46.303 41.235 49.895 45.574a.631.631 0 01-.185.958c-2.854 1.558-15.446 6.088-22.532-3.592a.63.63 0 01-.064-.627l3.679-8.269c.245-.549-.345-1.097-.878-.817l-7.986 4.202a.642.642 0 01-.598-.004c-5.343-2.832-10.949-2.523-13.496-2.173a.632.632 0 00-.309 1.123l33.24 26.383a.639.639 0 00.854-.056L299.82 97.51a.627.627 0 00-.179-1.005zm-125.443 54.031c1.482-1.388 8.205-8.23 11.731-21.092a.635.635 0 011.051-.291c7.569 7.296 17.272 13.169 29.91 18.469a.628.628 0 01.361.393c1.33 4.325 1.569 11.096 1.582 15.152a1138.717 1138.717 0 00-41.05-1.802 161.511 161.511 0 01-3.752-10.173.63.63 0 01.167-.656zm-93.109-4.053c.906-1.156 5.255-7.215 7.474-19.552a.635.635 0 01.743-.514c4.656.882 34.186 6.077 59.977 1.192a.632.632 0 01.747.526c.293 1.978 1.543 8.365 6.364 18.107 2.959 5.98 6.302 11.176 8.892 14.863-6.091-.095-12.337-.149-18.753-.149-23.419 0-44.66.678-63.368 1.698l-2.205-15.691a.636.636 0 01.129-.48zm-19.217-15.386a.639.639 0 01.645.28c1.348 2.077 8.165 13.346 10.924 31.852-18.316 1.164-33.878 2.625-46.295 4.021 2.42-4.665 7.089-14.84 8.254-25.865a.625.625 0 01.248-.438c1.439-1.075 9.975-7.017 26.224-9.85z"/></svg>