<svg xmlns="http://www.w3.org/2000/svg" viewBox="0 0 700 700"><path d="M580 700H120C53.726 700 0 646.274 0 580V120C0 53.726 53.726 0 120 0h460c66.274 0 120 53.726 120 120v460c0 66.274-53.726 120-120 120z" fill="#fff"/><path d="M486.355 212.743l10.943.392c1.445.052 2-1.856.75-2.581l-27.892-16.19a1.39 1.39 0 00-1.999.703c-3.513 9.273-19.132 58.04 40.967 57.906 1.542-.004 1.931-2.134.49-2.681-24.482-9.288-25-30.669-24.697-36.246.04-.752.683-1.33 1.438-1.303z"/><path d="M677.248 360.785c-98.532-47.912-127.829-156.807-145.752-175.937-14.159-15.112-31.895-22.133-38.855-24.451-1.125-.375-2.169.737-1.726 1.833.676 1.67 1.424 3.923 1.711 6.245.143 1.152-1.126 1.949-2.115 1.336-13.088-8.11-27.217-12.491-33.652-14.214-1.227-.329-2.217 1.022-1.528 2.086 1.122 1.733 2.531 4.06 3.743 6.523.577 1.172-.644 2.416-1.833 1.867-10.547-4.866-27.013-9.869-33.987-11.901-1.175-.342-2.179.884-1.621 1.969a37.093 37.093 0 012.404 5.81c.346 1.107-.744 2.114-1.833 1.703-12.911-4.88-26.334-5.705-32.538-5.8-1.242-.019-1.886 1.464-1.019 2.35 1.384 1.415 3.089 3.389 4.441 5.681.514.873-.076 1.978-1.087 2.067-59.798 5.302-115.252 29.749-169.579 57.376-99.049 50.369-146 83.886-146 83.886 15.847 6.206 21.996 31.983 18.922 65.928-3.213 35.479-26.928 59.469-30.498 62.895a1.372 1.372 0 00-.422 1.047c.222 5.479 1.441 45.982-9.003 79.523-13.424 1.721-24.27 3.289-32.278 4.523-1.697.262-1.502 2.754.216 2.754h640.08c1.719 0 1.912-2.496.213-2.754-24.254-3.686-73.808-10.324-143.135-15.234.658-3.858 1.553-10.204 2.284-19.385 1.181-14.841.377-27.371.186-29.941a1.373 1.373 0 00-.362-.832c-2.75-2.979-22.332-24.462-33.687-44.265a1.39 1.39 0 01.983-2.061c45.004-7.507 78.547 33.845 126.152 11.153l-38.447-36.06c-1-.938-2.615-.02-2.309 1.314 1.038 4.52 1.826 10.926-1.383 12.844-5.124 3.063-23.059-.766-54.059-25.012-27.36-21.399-29.441-53.546-29.553-60.801a1.384 1.384 0 00-1.559-1.349c-7.8.933-42.543 7.884-53.435 58.067-9.633 44.38-37.196 54.76-42.898 56.455a1.395 1.395 0 01-1.587-.606c-31.002-50.731-7.043-113.632-.01-129.688.544-1.242-.846-2.446-2.003-1.733-10.374 6.392-39.057 27.792-47.62 73.149-.102.54-.515.976-1.052 1.1-72.806 16.873-94.278-43.018-83.5-85.26.332-1.301-1.197-2.259-2.236-1.404-17.574 14.454-29.599 41.901-36.281 72.269-7.997 36.347-35.687 55.341-78.064 59.786-18.868 1.979-26.605-1.923-24.267-21.111l3.246-26.642c5.054-41.474 34.739-84.651 75.439-109.632 41.032-25.185 73.348-29.164 84.202-29.765 1.358-.075 1.802-1.841.65-2.561-1.924-1.201-4.726-2.639-8.486-3.83-1.38-.437-1.28-2.418.143-2.685 12.335-2.311 29.873-2.259 38.644-2.053 1.461.034 1.981-1.909.696-2.602-3.072-1.659-7.325-3.703-11.81-5.086-1.345-.415-1.27-2.352.102-2.668 11.377-2.615 28.273-2.474 36.75-2.197 1.439.047 1.995-1.848.755-2.576-2.183-1.282-4.889-2.756-7.487-3.859-1.244-.528-1.07-2.341.251-2.625 9.189-1.973 24.195-1.9 30.949-1.747 1.287.029 1.922-1.551.966-2.409-1.287-1.156-2.986-2.512-4.904-3.619-1.109-.64-.867-2.295.386-2.562 12.502-2.662 53.373-9.708 113.462-3.659 39.227 3.949 55.297 9.507 65.866 37.071 6.927 18.067 5.191 47.411 4.805 52.749a1.373 1.373 0 00.675 1.283c50.112 29.643 101.259 90.176 109.116 99.665.555.671.36 1.677-.405 2.095-6.242 3.408-33.779 13.314-49.275-7.856a1.377 1.377 0 01-.14-1.371l8.045-18.084c.535-1.202-.754-2.4-1.921-1.786l-17.465 9.188a1.4 1.4 0 01-1.307-.009c-11.684-6.193-23.943-5.518-29.515-4.752-1.213.167-1.634 1.696-.676 2.456l72.692 57.696a1.395 1.395 0 001.867-.121l45.517-46.983a1.378 1.378 0 00-.395-2.204zm-274.329 118.16c3.241-3.036 17.944-17.997 25.653-46.125.277-1.01 1.542-1.365 2.298-.637 16.553 15.955 37.772 28.799 65.411 40.39.377.158.671.47.791.86 2.908 9.458 3.432 24.266 3.459 33.136a2492.799 2492.799 0 00-89.772-3.941 353.313 353.313 0 01-8.205-22.248 1.374 1.374 0 01.365-1.435zM199.3 470.083c1.981-2.528 11.493-15.779 16.344-42.758a1.39 1.39 0 011.626-1.124c10.182 1.929 74.761 13.289 131.163 2.607a1.384 1.384 0 011.634 1.15c.642 4.326 3.375 18.293 13.917 39.598 6.472 13.078 13.781 24.44 19.445 32.503a2636.24 2636.24 0 00-41.011-.326c-51.215 0-97.667 1.483-138.58 3.714l-4.821-34.315c-.053-.375.05-.751.283-1.049zm-42.025-33.648a1.398 1.398 0 011.41.611c2.947 4.543 17.857 29.186 23.89 69.657-40.054 2.545-74.087 5.741-101.243 8.794 5.293-10.203 15.503-32.453 18.052-56.564.04-.381.234-.728.541-.958 3.148-2.35 21.813-15.344 57.35-21.54z"/></svg>