<svg xmlns="http://www.w3.org/2000/svg" width="24" height="24"><g data-name="グループ 16372"><g data-name="グループ 16365"><path data-name="パス 20840" d="M14.52 3.876a4.735 4.735 0 00-.294 1.16l-.065.639-.146 1.429 1.421.208a4.444 4.444 0 013.378 6.291l-3.262 6.922H8.366a46.835 46.835 0 01-3.122-6.782 5.05 5.05 0 01.037-4.074 5.212 5.212 0 013.453-2.392l1.235-.33-.13-1.273L9.77 5a4.586 4.586 0 00-.288-1.127h5.038m2.241-1.5H7.239v.85a3.112 3.112 0 011.042 1.962l.066.639c-4.211 1.124-5.95 4.359-4.518 8.415a49.027 49.027 0 003.668 7.783H16.5l3.668-7.783a5.944 5.944 0 00-4.518-8.415l.065-.638a3.12 3.12 0 011.041-1.961v-.852z" fill="#202020"/></g></g></svg>