<svg data-name="コンポーネント 156 – 2" xmlns="http://www.w3.org/2000/svg" width="24" height="24"><path data-name="長方形 9550" d="M0 0h24v24H0z" fill="none"/><path data-name="パス 21030" d="M12 6.848c-3.321 0-6.332 1.807-8.555 4.742a.681.681 0 000 .817c2.222 2.939 5.234 4.746 8.555 4.746s6.332-1.807 8.555-4.742a.681.681 0 000-.817C18.332 8.655 15.321 6.848 12 6.848zm.238 8.781a3.636 3.636 0 113.41-3.391 3.648 3.648 0 01-3.41 3.391zm-.11-1.676a1.958 1.958 0 111.838-1.83 1.96 1.96 0 01-1.838 1.829z"/><path class="eyes_line" data-name="線 90" d="M17.464 5.489L6.536 18.51" stroke="#000" fill="none"/></svg>