<?xml version="1.0" encoding="iso-8859-1"?>
<!-- Generator: Adobe Illustrator 26.0.1, SVG Export Plug-In . SVG Version: 6.00 Build 0)  -->
<svg version="1.1" id="&#x30EC;&#x30A4;&#x30E4;&#x30FC;_1"
	 xmlns="http://www.w3.org/2000/svg" xmlns:xlink="http://www.w3.org/1999/xlink" x="0px" y="0px" viewBox="0 0 700 175"
	 style="enable-background:new 0 0 700 175; fill:#fff;" xml:space="preserve">
<rect x="0" style="fill:#202020;" width="700" height="175"/>
<g>
	<path d="M328.858,83.422h32.336c15.631,0,24.177-8.439,24.177-18.903c0-7.472-4.878-13.986-12.429-17.072
		c-0.769-0.314-0.908-1.349-0.237-1.838c4.229-3.086,7.043-7.645,7.043-12.819c0-9.339-7.422-16.877-21.703-16.877h-29.187
		c-0.587,0-1.062,0.476-1.062,1.063v0.246c0,0.58,0.466,1.053,1.045,1.063c8.39,0.145,9.638,2.226,9.638,13.043v36.568
		c0,10.818-1.247,13.003-9.639,13.155c-0.579,0.011-1.044,0.483-1.044,1.063v0.246C327.795,82.946,328.271,83.422,328.858,83.422z
		 M347.924,21.139c0-0.587,0.476-1.063,1.062-1.063h8.496c8.434,0,12.37,5.738,12.37,12.714c0,6.976-3.936,12.602-12.37,12.602
		h-8.496c-0.587,0-1.062-0.476-1.062-1.063V21.139z M347.924,50.618c0-0.587,0.476-1.063,1.062-1.063h12.094
		c9.783,0,14.394,6.751,14.394,14.965c0,8.101-4.611,14.739-14.394,14.739h-2.474c-9.333,0-10.683-1.8-10.683-13.052V50.618z"/>
	<path d="M430.462,14c-21.815,0-37.559,16.09-37.559,35.667c0,19.578,15.743,35.667,37.559,35.667
		c21.703,0,37.446-16.09,37.446-35.667C467.908,30.09,452.165,14,430.462,14z M430.462,80.722
		c-19.454,0-26.763-17.102-26.763-31.054c0-13.952,7.31-31.054,26.763-31.054c19.342,0,26.651,17.102,26.651,31.054
		C457.113,63.619,449.804,80.722,430.462,80.722z"/>
	<path d="M462.172,82.114v0.245c0,0.587,0.476,1.063,1.063,1.063h24.526c0.587,0,1.062-0.476,1.062-1.063v-0.248
		c0-0.577-0.46-1.05-1.036-1.062c-8.445-0.183-10.223-2.696-7.735-8.54l5.01-11.731c0.167-0.391,0.552-0.645,0.977-0.645h25.029
		c0.422,0,0.805,0.25,0.974,0.638l5.119,11.739c2.596,5.952,0.718,8.365-7.734,8.541c-0.576,0.012-1.037,0.486-1.037,1.063v0.248
		c0,0.587,0.476,1.063,1.063,1.063h28.561h1.026h27.661c0.587,0,1.062-0.476,1.062-1.063v-0.246c0-0.58-0.465-1.052-1.044-1.063
		c-8.391-0.152-9.639-2.337-9.639-13.155V54.894c0-0.587,0.476-1.063,1.063-1.063h3.693c0.334,0,0.648,0.157,0.849,0.424
		l21.628,28.744c0.201,0.267,0.515,0.424,0.849,0.424h16.962c0.587,0,1.062-0.476,1.062-1.063v-0.382
		c0-0.511-0.362-0.956-0.866-1.045c-6.512-1.144-13.591-6.622-20.05-14.163l-9.758-11.457c-0.535-0.628-0.181-1.604,0.633-1.737
		c11.536-1.89,18.121-9.356,18.121-18.648c0-10.464-8.546-19.015-24.177-19.015h-29.075c-0.587,0-1.063,0.476-1.063,1.063v0.246
		c0,0.58,0.466,1.053,1.045,1.063c8.39,0.145,9.638,2.226,9.638,13.043v36.568c0,10.592-1.214,12.902-9.142,13.137
		c-7.771-0.224-8.389-2.266-11.66-9.762l-24.124-55.618c-0.169-0.389-0.552-0.64-0.975-0.64h-1.191
		c-0.424,0-0.807,0.252-0.975,0.642L475.553,71.27c-3.353,7.683-3.897,9.642-12.335,9.781
		C462.638,81.061,462.172,81.533,462.172,82.114z M557.079,21.252c0-0.587,0.476-1.063,1.063-1.063h8.833
		c9.783,0,14.281,6.638,14.281,14.74c0,8.214-4.498,14.739-14.281,14.739h-8.833c-0.587,0-1.063-0.476-1.063-1.063V21.252z
		 M487.875,54.377l9.748-22.983c0.367-0.865,1.594-0.863,1.958,0.004l9.651,22.983c0.294,0.701-0.22,1.475-0.98,1.475h-19.399
		C488.092,55.856,487.578,55.078,487.875,54.377z"/>
	<path d="M393.883,162.829c-8.327-0.141-8.872-2.101-12.223-9.78L357.535,97.43c-0.169-0.389-0.552-0.64-0.975-0.64h-1.191
		c-0.424,0-0.807,0.252-0.975,0.642l-24.013,55.616c-3.42,7.837-3.918,9.718-12.854,9.787c-0.291,0.002-0.527,0.24-0.527,0.531
		v1.302c0,0.294,0.238,0.532,0.531,0.532h25.057c0.587,0,1.062-0.476,1.062-1.063v-0.248c0-0.576-0.46-1.05-1.036-1.062
		c-8.445-0.183-10.223-2.696-7.735-8.54l5.01-11.731c0.167-0.391,0.552-0.645,0.977-0.645h25.029c0.422,0,0.805,0.25,0.974,0.638
		l5.119,11.739c2.596,5.952,0.718,8.365-7.734,8.541c-0.576,0.012-1.037,0.486-1.037,1.063v0.248c0,0.587,0.476,1.063,1.063,1.063
		h29.586c0.587,0,1.063-0.476,1.063-1.063v-0.246C394.929,163.311,394.462,162.838,393.883,162.829z M363.08,137.633h-19.399
		c-0.761,0-1.275-0.777-0.978-1.478l9.748-22.983c0.367-0.865,1.594-0.863,1.958,0.003l9.651,22.983
		C364.354,136.859,363.84,137.633,363.08,137.633z"/>
	<path d="M451.353,161.361c-6.834-0.184-7.959-2.421-7.959-13.151v-30.554c0-0.587-0.476-1.063-1.063-1.063h-15.642
		c-0.587,0-1.062,0.476-1.062,1.063v0.139c0,0.576,0.46,1.045,1.035,1.062c6.535,0.192,7.961,2.442,7.961,13.15v13.727
		c0,8.776-8.434,15.302-15.406,15.302c-7.085,0-11.695-4.275-11.695-13.952v-29.429c0-0.587-0.476-1.063-1.062-1.063h-15.642
		c-0.587,0-1.063,0.476-1.063,1.063v0.139c0,0.576,0.46,1.045,1.035,1.062c6.535,0.192,7.961,2.442,7.961,13.15v15.19
		c0,11.927,6.072,19.353,17.43,19.353c6.687,0,13.04-3.928,16.899-8.327c0.6-0.684,1.728-0.348,1.849,0.554
		c0.351,2.61,1.11,5.156,1.708,6.65c0.185,0.463,0.669,0.731,1.161,0.648l13.705-2.302c0.512-0.086,0.887-0.529,0.887-1.048v-0.302
		C452.389,161.847,451.929,161.377,451.353,161.361z"/>
	<path d="M500.107,155.845c-0.379-0.47-1.075-0.539-1.53-0.144c-4.154,3.61-9.346,5.785-13.352,5.785
		c-11.92,0-16.755-8.439-16.755-19.578c0-12.939,5.848-22.841,14.169-22.841c3.261,0,6.859,2.025,6.859,6.188
		c0,2.7,2.137,4.838,4.611,4.838c4.161,0,5.398-3.375,5.398-5.176c0-4.613-5.847-9.676-16.868-9.676
		c-11.695,0-23.952,10.464-23.952,26.666c0,13.727,7.534,24.641,23.165,24.641c7.21,0,14.316-2.988,19.251-7.977
		c0.379-0.383,0.405-0.993,0.067-1.413L500.107,155.845z"/>
	<path d="M538.991,157.715c-0.384-0.406-1.014-0.437-1.445-0.082c-2.75,2.269-5.327,3.404-7.904,3.404
		c-4.161,0-6.185-3.263-6.185-9.339v-29.991c0-0.587,0.476-1.063,1.062-1.063h10.47c0.587,0,1.063-0.476,1.063-1.063v-1.924
		c0-0.587-0.476-1.063-1.063-1.063h-10.47c-0.587,0-1.062-0.476-1.062-1.063v-12.276c0-0.587-0.476-1.063-1.063-1.063h-2.715
		c-0.536,0-0.987,0.401-1.053,0.933c-0.949,7.604-3.38,12.391-10.439,14.181c-0.475,0.12-0.811,0.543-0.811,1.033v1.243
		c0,0.587,0.476,1.063,1.063,1.063h5.184c0.587,0,1.063,0.476,1.063,1.063v29.991c0,10.014,4.386,14.627,11.695,14.627
		c4.559,0,9.617-2.4,13.29-6.446c0.377-0.415,0.377-1.047-0.008-1.454L538.991,157.715z"/>
	<path d="M570.886,162.936c-6.645-0.189-8.073-2.434-8.073-13.151v-33.427c0-0.648-0.574-1.145-1.215-1.052l-15.755,2.28
		c-0.523,0.076-0.91,0.524-0.91,1.052v0.281c0,0.576,0.46,1.047,1.037,1.062c6.845,0.184,8.072,2.42,8.072,13.151v16.652
		c0,10.716-1.428,12.961-8.073,13.151c-0.576,0.016-1.036,0.486-1.036,1.062v0.139c0,0.587,0.476,1.063,1.062,1.063h24.863
		c0.587,0,1.063-0.476,1.063-1.063v-0.139C571.921,163.422,571.461,162.952,570.886,162.936z"/>
	<path d="M553.886,105.824c0.065,0.09,0.145,0.171,0.235,0.236c5.602,4.056,11.777-2.121,7.723-7.727
		c-0.065-0.09-0.146-0.171-0.236-0.236C556.006,94.041,549.832,100.219,553.886,105.824z"/>
	<path d="M603.856,114.793c-14.956,0-26.539,11.927-26.539,26.104c0,14.177,11.583,26.104,26.539,26.104
		c14.843,0,26.539-11.927,26.539-26.104C630.395,126.719,618.7,114.793,603.856,114.793z M603.856,162.837
		c-11.245,0-16.755-9.789-16.755-21.94c0-12.039,5.51-21.941,16.755-21.941c11.245,0,16.755,9.901,16.755,21.941
		C620.611,153.048,615.101,162.837,603.856,162.837z"/>
	<path d="M698.964,162.936c-6.645-0.189-8.073-2.434-8.073-13.151v-15.189c0-11.927-5.96-19.353-17.317-19.353
		c-6.691,0-13.047,3.932-16.906,8.262c-0.603,0.677-1.724,0.337-1.844-0.562c-0.352-2.647-1.111-5.431-1.709-7.003
		c-0.18-0.474-0.668-0.755-1.169-0.672l-13.807,2.303c-0.512,0.085-0.888,0.529-0.888,1.049v0.3c0,0.576,0.461,1.047,1.037,1.062
		c6.835,0.184,7.96,2.421,7.96,13.151v16.652c0,10.716-1.428,12.961-8.073,13.151c-0.576,0.016-1.036,0.486-1.036,1.062v0.139
		c0,0.587,0.476,1.063,1.062,1.063h24.751c0.587,0,1.063-0.476,1.063-1.063v-0.139c0-0.576-0.46-1.045-1.035-1.062
		c-6.535-0.192-7.961-2.442-7.961-13.15v-13.727c0-8.776,8.546-15.302,15.406-15.302c7.197,0,11.695,4.276,11.695,13.952v15.077
		c0,10.708-1.426,12.958-7.961,13.15c-0.575,0.017-1.035,0.486-1.035,1.062v0.139c0,0.587,0.476,1.063,1.063,1.063h24.751
		c0.587,0,1.063-0.476,1.063-1.063v-0.139C700,163.422,699.54,162.952,698.964,162.936z"/>
</g>
<path d="M260.748,125.867l-0.013,0.007c0.003,0.004,0.005,0.008,0.008,0.013C260.745,125.88,260.746,125.873,260.748,125.867z"/>
<g>
	<path d="M212.351,28.809l5.004,0.179c0.661,0.024,0.914-0.849,0.343-1.18l-12.754-7.403c-0.339-0.197-0.776-0.045-0.914,0.321
		c-1.606,4.24-8.749,26.54,18.733,26.479c0.705-0.002,0.883-0.976,0.224-1.226c-11.195-4.247-11.432-14.024-11.293-16.574
		C211.712,29.061,212.006,28.797,212.351,28.809z"/>
	<path d="M299.641,96.505c-45.056-21.909-58.452-71.703-66.648-80.451c-6.474-6.91-14.585-10.121-17.767-11.181
		c-0.515-0.171-0.992,0.337-0.789,0.838c0.309,0.764,0.651,1.794,0.782,2.856c0.065,0.527-0.515,0.891-0.967,0.611
		c-5.985-3.708-12.446-5.712-15.388-6.5c-0.561-0.15-1.014,0.467-0.699,0.954c0.513,0.793,1.158,1.857,1.712,2.983
		c0.264,0.536-0.294,1.105-0.838,0.854c-4.823-2.225-12.352-4.513-15.541-5.442c-0.537-0.157-0.997,0.404-0.741,0.901
		c0.356,0.692,0.772,1.612,1.099,2.657c0.158,0.506-0.34,0.967-0.838,0.779c-5.904-2.232-12.042-2.609-14.879-2.652
		c-0.568-0.009-0.862,0.669-0.466,1.075c0.633,0.647,1.413,1.55,2.031,2.598c0.235,0.399-0.035,0.904-0.497,0.945
		c-27.344,2.424-52.701,13.603-77.544,26.236C46.37,57.597,24.901,72.923,24.901,72.923h0c7.247,2.838,10.058,14.625,8.652,30.147
		c-1.469,16.223-12.313,27.193-13.946,28.76c-0.13,0.125-0.2,0.298-0.193,0.479c0.101,2.505,0.659,21.026-4.117,36.364
		c-6.138,0.787-11.098,1.504-14.76,2.068C-0.238,170.86-0.148,172,0.637,172h292.69c0.786,0,0.874-1.141,0.097-1.259
		c-11.091-1.685-33.75-4.721-65.451-6.966c0.301-1.764,0.71-4.666,1.044-8.864c0.54-6.786,0.172-12.516,0.085-13.691
		c-0.011-0.142-0.069-0.275-0.166-0.381c-1.257-1.362-10.212-11.186-15.404-20.241c-0.22-0.384,0.012-0.869,0.45-0.942
		c20.579-3.433,35.917,15.476,57.685,5.1h0l-17.581-16.489c-0.457-0.429-1.196-0.009-1.056,0.601
		c0.474,2.067,0.835,4.996-0.632,5.873c-2.343,1.4-10.544-0.35-24.72-11.437c-12.511-9.785-13.463-24.485-13.514-27.803
		c-0.006-0.377-0.337-0.662-0.713-0.617c-3.567,0.427-19.454,3.605-24.434,26.552c-4.405,20.294-17.009,25.04-19.616,25.815
		c-0.277,0.082-0.575-0.031-0.726-0.277c-14.176-23.198-3.221-51.961-0.005-59.303c0.249-0.568-0.387-1.118-0.916-0.792
		c-4.744,2.923-17.86,12.709-21.775,33.449c-0.047,0.247-0.235,0.446-0.481,0.503c-33.292,7.715-43.111-19.671-38.182-38.987
		c0.152-0.595-0.547-1.033-1.022-0.642c-8.036,6.609-13.535,19.16-16.59,33.046c-3.657,16.621-16.319,25.306-35.696,27.338
		c-8.628,0.905-12.166-0.879-11.097-9.653l1.484-12.183c2.311-18.965,15.885-38.708,34.496-50.132
		c18.763-11.516,33.54-13.336,38.503-13.611c0.621-0.034,0.824-0.842,0.297-1.171c-0.88-0.549-2.161-1.207-3.88-1.751
		c-0.631-0.2-0.585-1.106,0.065-1.228c5.641-1.057,13.66-1.033,17.671-0.939c0.668,0.016,0.906-0.873,0.318-1.19
		c-1.405-0.758-3.35-1.693-5.401-2.326c-0.615-0.19-0.581-1.076,0.047-1.22c5.203-1.196,12.929-1.131,16.805-1.005
		c0.658,0.022,0.912-0.845,0.345-1.178c-0.998-0.586-2.236-1.26-3.424-1.765c-0.569-0.242-0.489-1.071,0.115-1.2
		c4.202-0.902,11.064-0.869,14.152-0.799c0.588,0.013,0.879-0.709,0.442-1.102c-0.588-0.528-1.365-1.149-2.243-1.655
		c-0.507-0.293-0.397-1.05,0.176-1.172c5.717-1.217,24.406-4.439,51.883-1.673c17.937,1.806,25.286,4.347,30.119,16.951
		c3.167,8.261,2.374,21.68,2.197,24.121c-0.017,0.239,0.102,0.464,0.308,0.587c22.915,13.555,46.303,41.235,49.895,45.574
		c0.254,0.307,0.165,0.767-0.185,0.958c-2.854,1.558-15.446,6.088-22.532-3.592c-0.133-0.181-0.155-0.422-0.064-0.627l3.679-8.269
		c0.245-0.549-0.345-1.097-0.878-0.817l-7.986,4.202c-0.187,0.098-0.411,0.095-0.598-0.004c-5.343-2.832-10.949-2.523-13.496-2.173
		c-0.555,0.076-0.747,0.776-0.309,1.123l33.24,26.383c0.256,0.203,0.626,0.179,0.854-0.056l20.814-21.484
		C300.123,97.203,300.029,96.694,299.641,96.505z M174.198,150.536c1.482-1.388,8.205-8.23,11.731-21.092
		c0.127-0.462,0.705-0.624,1.051-0.291c7.569,7.296,17.272,13.169,29.91,18.469c0.172,0.072,0.307,0.215,0.361,0.393
		c1.33,4.325,1.569,11.096,1.582,15.152c-12.491-0.778-26.216-1.415-41.05-1.802c-1.91-4.662-3.333-8.898-3.752-10.173
		C173.955,150.959,174.019,150.704,174.198,150.536z M81.089,146.483c0.906-1.156,5.255-7.215,7.474-19.552
		c0.062-0.348,0.395-0.58,0.743-0.514c4.656,0.882,34.186,6.077,59.977,1.192c0.355-0.067,0.695,0.17,0.747,0.526
		c0.293,1.978,1.543,8.365,6.364,18.107c2.959,5.98,6.302,11.176,8.892,14.863c-6.091-0.095-12.337-0.149-18.753-0.149
		c-23.419,0-44.66,0.678-63.368,1.698l-2.205-15.691C80.936,146.791,80.983,146.619,81.089,146.483z M61.872,131.097
		c0.251-0.044,0.506,0.066,0.645,0.28c1.348,2.077,8.165,13.346,10.924,31.852c-18.316,1.164-33.878,2.625-46.295,4.021
		c2.42-4.665,7.089-14.84,8.254-25.865c0.018-0.174,0.107-0.333,0.248-0.438C37.087,139.872,45.623,133.93,61.872,131.097z"/>
</g>
</svg>
