<?xml version="1.0" encoding="iso-8859-1"?>
<!-- Generator: Adobe Illustrator 26.0.1, SVG Export Plug-In . SVG Version: 6.00 Build 0)  -->
<svg version="1.1" id="&#x30EC;&#x30A4;&#x30E4;&#x30FC;_1"
	 xmlns="http://www.w3.org/2000/svg" xmlns:xlink="http://www.w3.org/1999/xlink" x="0px" y="0px" viewBox="0 0 700 700"
	 style="enable-background:new 0 0 700 700;" xml:space="preserve">
<g>
	<path style="fill:#FFFFFF;" d="M580,700H120C53.726,700,0,646.274,0,580V120C0,53.726,53.726,0,120,0h460
		c66.274,0,120,53.726,120,120v460C700,646.274,646.274,700,580,700z"/>
</g>
<g>
	<path d="M486.355,212.743l10.943,0.392c1.445,0.052,2-1.856,0.75-2.581l-27.892-16.19c-0.742-0.431-1.696-0.098-1.999,0.703
		c-3.513,9.273-19.132,58.04,40.967,57.906c1.542-0.004,1.931-2.134,0.49-2.681c-24.482-9.288-25-30.669-24.697-36.246
		C484.957,213.294,485.6,212.716,486.355,212.743z"/>
	<path d="M677.248,360.785c-98.532-47.912-127.829-156.807-145.752-175.937c-14.159-15.112-31.895-22.133-38.855-24.451
		c-1.125-0.375-2.169,0.737-1.726,1.833c0.676,1.67,1.424,3.923,1.711,6.245c0.143,1.152-1.126,1.949-2.115,1.336
		c-13.088-8.11-27.217-12.491-33.652-14.214c-1.227-0.329-2.217,1.022-1.528,2.086c1.122,1.733,2.531,4.06,3.743,6.523
		c0.577,1.172-0.644,2.416-1.833,1.867c-10.547-4.866-27.013-9.869-33.987-11.901c-1.175-0.342-2.179,0.884-1.621,1.969
		c0.779,1.514,1.689,3.526,2.404,5.81c0.346,1.107-0.744,2.114-1.833,1.703c-12.911-4.88-26.334-5.705-32.538-5.8
		c-1.242-0.019-1.886,1.464-1.019,2.35c1.384,1.415,3.089,3.389,4.441,5.681c0.514,0.873-0.076,1.978-1.087,2.067
		c-59.798,5.302-115.252,29.749-169.579,57.376c-99.049,50.369-146,83.886-146,83.886h0c15.847,6.206,21.996,31.983,18.922,65.928
		c-3.213,35.479-26.928,59.469-30.498,62.895c-0.285,0.274-0.438,0.653-0.422,1.047c0.222,5.479,1.441,45.982-9.003,79.523
		c-13.424,1.721-24.27,3.289-32.278,4.523c-1.697,0.262-1.502,2.754,0.216,2.754h640.08c1.719,0,1.912-2.496,0.213-2.754
		c-24.254-3.686-73.808-10.324-143.135-15.234c0.658-3.858,1.553-10.204,2.284-19.385c1.181-14.841,0.377-27.371,0.186-29.941
		c-0.023-0.311-0.15-0.602-0.362-0.832c-2.75-2.979-22.332-24.462-33.687-44.265c-0.482-0.84,0.025-1.901,0.983-2.061
		c45.004-7.507,78.547,33.845,126.152,11.153h0l-38.447-36.06c-1-0.938-2.615-0.02-2.309,1.314
		c1.038,4.52,1.826,10.926-1.383,12.844c-5.124,3.063-23.059-0.766-54.059-25.012c-27.36-21.399-29.441-53.546-29.553-60.801
		c-0.012-0.824-0.738-1.448-1.559-1.349c-7.8,0.933-42.543,7.884-53.435,58.067c-9.633,44.38-37.196,54.76-42.898,56.455
		c-0.605,0.18-1.258-0.068-1.587-0.606c-31.002-50.731-7.043-113.632-0.01-129.688c0.544-1.242-0.846-2.446-2.003-1.733
		c-10.374,6.392-39.057,27.792-47.62,73.149c-0.102,0.54-0.515,0.976-1.052,1.1c-72.806,16.873-94.278-43.018-83.5-85.26
		c0.332-1.301-1.197-2.259-2.236-1.404c-17.574,14.454-29.599,41.901-36.281,72.269c-7.997,36.347-35.687,55.341-78.064,59.786
		c-18.868,1.979-26.605-1.923-24.267-21.111l3.246-26.642c5.054-41.474,34.739-84.651,75.439-109.632
		c41.032-25.185,73.348-29.164,84.202-29.765c1.358-0.075,1.802-1.841,0.65-2.561c-1.924-1.201-4.726-2.639-8.486-3.83
		c-1.38-0.437-1.28-2.418,0.143-2.685c12.335-2.311,29.873-2.259,38.644-2.053c1.461,0.034,1.981-1.909,0.696-2.602
		c-3.072-1.659-7.325-3.703-11.81-5.086c-1.345-0.415-1.27-2.352,0.102-2.668c11.377-2.615,28.273-2.474,36.75-2.197
		c1.439,0.047,1.995-1.848,0.755-2.576c-2.183-1.282-4.889-2.756-7.487-3.859c-1.244-0.528-1.07-2.341,0.251-2.625
		c9.189-1.973,24.195-1.9,30.949-1.747c1.287,0.029,1.922-1.551,0.966-2.409c-1.287-1.156-2.986-2.512-4.904-3.619
		c-1.109-0.64-0.867-2.295,0.386-2.562c12.502-2.662,53.373-9.708,113.462-3.659c39.227,3.949,55.297,9.507,65.866,37.071
		c6.927,18.067,5.191,47.411,4.805,52.749c-0.038,0.522,0.223,1.015,0.675,1.283c50.112,29.643,101.259,90.176,109.116,99.665
		c0.555,0.671,0.36,1.677-0.405,2.095c-6.242,3.408-33.779,13.314-49.275-7.856c-0.29-0.397-0.34-0.922-0.14-1.371l8.045-18.084
		c0.535-1.202-0.754-2.4-1.921-1.786l-17.465,9.188c-0.41,0.215-0.899,0.208-1.307-0.009c-11.684-6.193-23.943-5.518-29.515-4.752
		c-1.213,0.167-1.634,1.696-0.676,2.456l72.692,57.696c0.561,0.445,1.369,0.392,1.867-0.121l45.517-46.983
		C678.302,362.314,678.098,361.199,677.248,360.785z M402.919,478.945c3.241-3.036,17.944-17.997,25.653-46.125
		c0.277-1.01,1.542-1.365,2.298-0.637c16.553,15.955,37.772,28.799,65.411,40.39c0.377,0.158,0.671,0.47,0.791,0.86
		c2.908,9.458,3.432,24.266,3.459,33.136c-27.317-1.701-57.332-3.094-89.772-3.941c-4.176-10.195-7.289-19.459-8.205-22.248
		C402.386,479.871,402.527,479.313,402.919,478.945z M199.3,470.083c1.981-2.528,11.493-15.779,16.344-42.758
		c0.137-0.76,0.864-1.269,1.626-1.124c10.182,1.929,74.761,13.289,131.163,2.607c0.775-0.147,1.519,0.372,1.634,1.15
		c0.642,4.326,3.375,18.293,13.917,39.598c6.472,13.078,13.781,24.44,19.445,32.503c-13.321-0.207-26.979-0.326-41.011-0.326
		c-51.215,0-97.667,1.483-138.58,3.714l-4.821-34.315C198.964,470.757,199.067,470.381,199.3,470.083z M157.275,436.435
		c0.549-0.096,1.107,0.145,1.41,0.611c2.947,4.543,17.857,29.186,23.89,69.657c-40.054,2.545-74.087,5.741-101.243,8.794
		c5.293-10.203,15.503-32.453,18.052-56.564c0.04-0.381,0.234-0.728,0.541-0.958C103.073,455.625,121.738,442.631,157.275,436.435z"
		/>
</g>
</svg>
