<svg xmlns="http://www.w3.org/2000/svg" width="24" height="24" viewBox="0 0 24 24">
    <defs>
        <style>
            .cls-2{fill:#202020}
        </style>
    </defs>
    <g id="グループ_16374" data-name="グループ 16374" transform="translate(-607.717 -381)">
        <g id="グループ_16368" data-name="グループ 16368" transform="translate(-1)">
            <path id="パス_20841" data-name="パス 20841" class="cls-2" d="M613.6 383.6V397h-3.8v.75a4.459 4.459 0 0 0 4.555 4.647h11.663a3.457 3.457 0 0 0 3.453-3.454V383.6zm-2.225 14.9h2.225v2.32a2.878 2.878 0 0 1-2.225-2.32zm16.592.443a1.955 1.955 0 0 1-1.953 1.954H615.1V385.1h12.866z"/>
            <path id="長方形_9394" data-name="長方形 9394" class="cls-2" transform="translate(616.892 395.045)" d="M0 0h5.783v1H0z"/>
            <path id="長方形_9395" data-name="長方形 9395" class="cls-2" transform="translate(616.892 391.695)" d="M0 0h8.783v1H0z"/>
            <path id="長方形_9396" data-name="長方形 9396" class="cls-2" transform="translate(616.892 388.41)" d="M0 0h8.783v1H0z"/>
        </g>
    </g>
</svg>
