<svg data-name="コンポーネント 156 – 2" xmlns="http://www.w3.org/2000/svg" width="24" height="24" viewBox="0 0 24 24">
    <path data-name="長方形 9550" style="fill:none" d="M0 0h24v24H0z"/>
    <path data-name="パス 21030" d="M12 6.848c-3.321 0-6.332 1.807-8.555 4.742a.681.681 0 0 0 0 .817c2.222 2.939 5.234 4.746 8.555 4.746s6.332-1.807 8.555-4.742a.681.681 0 0 0 0-.817C18.332 8.655 15.321 6.848 12 6.848zm.238 8.781a3.636 3.636 0 1 1 3.41-3.391 3.648 3.648 0 0 1-3.41 3.391zm-.11-1.676a1.958 1.958 0 1 1 1.838-1.83 1.96 1.96 0 0 1-1.838 1.829z"/>
    <path data-name="線 90" transform="rotate(40 1.192 26.735)" style="stroke:#000;fill:none" d="M0 0v17"/>
</svg>
