<svg xmlns="http://www.w3.org/2000/svg" width="21" height="21" viewBox="0 0 21 21">
    <g data-name="コンポーネント 85 – 21">
        <g data-name="グループ 16922" style="opacity:.6">
            <path data-name="パス 21029" d="m10.5 4.197 1.958 3.491.263.468.527.105 3.925.783-2.715 2.941-.364.394.063.533.468 3.975-3.636-1.673-.487-.225-.487.225-3.636 1.673.468-3.975.063-.533-.364-.394-2.715-2.941 3.925-.783.527-.105.263-.468 1.957-3.491m0-2.385-2.975 5.3-5.965 1.191 4.126 4.468-.711 6.041 5.525-2.542 5.525 2.542-.711-6.041 4.126-4.468-5.965-1.191-2.975-5.3z"/>
            <path data-name="長方形 9488" style="fill:none;stroke:transparent" d="M0 0h20v20H0z" transform="translate(.5 .5)"/>
        </g>
    </g>
</svg>
