<svg xmlns="http://www.w3.org/2000/svg" width="24" height="24" viewBox="0 0 24 24">
    <g data-name="グループ 16372">
        <g data-name="グループ 16365">
            <path data-name="パス 20840" d="M542.52 384.876a4.735 4.735 0 0 0-.294 1.16l-.065.639-.146 1.429 1.421.208a4.444 4.444 0 0 1 3.378 6.291l-3.262 6.922h-7.186a46.835 46.835 0 0 1-3.122-6.782 5.05 5.05 0 0 1 .037-4.074 5.212 5.212 0 0 1 3.453-2.392l1.235-.33-.13-1.273-.069-.674a4.586 4.586 0 0 0-.288-1.127h5.038m2.241-1.5h-9.522v.85a3.112 3.112 0 0 1 1.042 1.962l.066.639c-4.211 1.124-5.95 4.359-4.518 8.415a49.027 49.027 0 0 0 3.668 7.783h9.003l3.668-7.783a5.944 5.944 0 0 0-4.518-8.415l.065-.638a3.12 3.12 0 0 1 1.041-1.961v-.852z" style="fill:#202020" transform="translate(-528 -381)"/>
        </g>
    </g>
</svg>
