<svg xmlns="http://www.w3.org/2000/svg" width="24" height="24" viewBox="0 0 24 24">
    <defs>
        <style>
            .cls-2{fill:#202020}
        </style>
    </defs>
    <g id="グループ_16430" data-name="グループ 16430" transform="translate(-768 -380.999)">
        <g id="グループ_16436" data-name="グループ 16436">
            <path id="長方形_9415" data-name="長方形 9415" transform="translate(768 380.999)" style="fill:none" d="M0 0h24v24H0z"/>
        </g>
        <g id="グループ_16440" data-name="グループ 16440">
            <g id="グループ_16438" data-name="グループ 16438">
                <g id="グループ_16437" data-name="グループ 16437">
                    <path id="パス_20849" data-name="パス 20849" class="cls-2" d="M779.127 392.9a2.032 2.032 0 0 1 .108-.718 1.645 1.645 0 0 1 .369-.583 3.134 3.134 0 0 1 .66-.5 3.635 3.635 0 0 0 .562-.413 1.183 1.183 0 0 0 .3-.425 1.429 1.429 0 0 0 .091-.527v-.006a1.107 1.107 0 0 0-.167-.6 1.139 1.139 0 0 0-.463-.41 1.571 1.571 0 0 0-.7-.146 1.5 1.5 0 0 0-.7.155 1.23 1.23 0 0 0-.475.425 1.327 1.327 0 0 0-.205.633l-.006.052h-1.2l.006-.064a2.527 2.527 0 0 1 .345-1.146 2.189 2.189 0 0 1 .882-.817 3.019 3.019 0 0 1 1.421-.305 3.05 3.05 0 0 1 1.354.284 2.264 2.264 0 0 1 .9.771 1.963 1.963 0 0 1 .325 1.119v.006a2.05 2.05 0 0 1-.325 1.163 2.8 2.8 0 0 1-.911.841 3.221 3.221 0 0 0-.586.413 1.122 1.122 0 0 0-.3.419 1.448 1.448 0 0 0-.085.521v.334h-1.2zm.073 2.684a.732.732 0 0 1-.22-.536.721.721 0 0 1 .22-.533.793.793 0 0 1 1.09 0 .717.717 0 0 1 .22.533.728.728 0 0 1-.22.536.785.785 0 0 1-1.09 0z"/>
                </g>
            </g>
            <g id="グループ_16439" data-name="グループ 16439">
                <path id="パス_20850" data-name="パス 20850" class="cls-2" d="M777.893 403.543v-3.392a8.726 8.726 0 0 1-6.978-8.437 9.085 9.085 0 0 1 18.17 0c0 3.571-2.3 6.253-4.221 7.873a21.577 21.577 0 0 1-5.968 3.6zM780 384.129a7.593 7.593 0 0 0-7.585 7.585 7.18 7.18 0 0 0 6.311 7.046l.667.075v2.5a21.425 21.425 0 0 0 4.505-2.9c1.682-1.416 3.687-3.732 3.687-6.726a7.593 7.593 0 0 0-7.585-7.58z"/>
            </g>
        </g>
    </g>
</svg>
